<svg version="1.1" id="Layer_1" xmlns="http://www.w3.org/2000/svg" xmlns:xlink="http://www.w3.org/1999/xlink" x="0px" y="0px"
	 width="100%" viewBox="0 0 1024 1024" enable-background="new 0 0 1024 1024" xml:space="preserve">
<path fill="#000000" opacity="1.000000" stroke="none" 
	d="
M625.453857,516.538513 
	C614.122681,505.021057 608.763000,491.068329 606.288696,475.796082 
	C603.157837,456.471497 604.790894,437.622162 612.434082,419.488617 
	C624.629456,390.555054 653.590698,378.161469 682.079834,381.110840 
	C718.524353,384.883820 737.926941,411.180298 742.345215,443.579132 
	C744.963074,462.775879 743.123901,481.422760 734.778992,499.174561 
	C721.478699,527.467468 694.254211,538.099060 666.907288,535.852600 
	C650.935547,534.540527 636.886353,528.661255 625.453857,516.538513 
M633.445129,428.953857 
	C626.176270,450.810364 625.838928,472.402344 636.383606,493.392670 
	C643.854675,508.264801 656.695129,515.099792 672.798523,515.576355 
	C689.546875,516.071960 702.862488,509.421539 711.315918,494.406982 
	C720.791748,477.576721 721.602722,459.531555 718.070190,441.141907 
	C715.773499,429.185699 711.011597,418.296967 701.182739,410.243927 
	C684.031616,396.191559 647.309937,395.661346 633.445129,428.953857 
z"/>
<path fill="#000000" opacity="1.000000" stroke="none" 
	d="
M517.887390,382.753967 
	C528.850220,383.495789 539.182068,384.825714 549.110840,388.627563 
	C567.926392,395.832245 580.447388,408.811676 586.416260,428.125641 
	C592.433899,447.597382 592.532593,467.167633 586.735107,486.580200 
	C578.713318,513.440674 556.130798,530.855896 527.991821,533.385742 
	C511.118347,534.902710 494.457550,534.333130 477.795715,531.409607 
	C473.501953,530.656128 471.563293,529.206055 471.582489,524.400879 
	C471.758484,480.254852 471.736267,436.107758 471.614258,391.961365 
	C471.602722,387.780914 472.997223,386.101654 477.127106,385.491577 
	C490.492737,383.517059 503.887207,382.341400 517.887390,382.753967 
M559.102722,423.399261 
	C554.474731,415.930573 548.066040,410.619873 539.917297,407.318085 
	C526.033569,401.692474 511.627960,402.061096 497.125153,403.442291 
	C494.393799,403.702454 494.256622,405.754181 494.257690,407.861359 
	C494.274567,441.511169 494.316895,475.161041 494.253876,508.810699 
	C494.247467,512.236511 495.686523,513.275208 498.919556,513.792542 
	C507.747101,515.205017 516.547974,515.055725 525.266846,513.583862 
	C544.332397,510.365417 558.039429,500.667358 563.949768,481.339447 
	C567.192627,470.734711 567.058350,459.994049 566.669067,449.185852 
	C566.347168,440.245239 564.012024,431.797760 559.102722,423.399261 
z"/>
<path fill="#000000" opacity="1.000000" stroke="none" 
	d="
M910.765991,469.000000 
	C910.772461,442.500885 910.773499,416.501770 910.794861,390.502655 
	C910.800171,384.025330 911.001099,383.825287 917.606445,383.829346 
	C942.271973,383.844543 966.938110,383.986603 991.602356,383.819885 
	C996.154480,383.789154 997.593994,385.384064 997.935669,389.754547 
	C999.055664,404.080414 999.175476,404.118896 985.235168,404.121918 
	C969.902649,404.125244 954.568176,404.220123 939.238892,403.988068 
	C934.668823,403.918884 933.131348,405.385376 933.280579,410.013977 
	C933.597290,419.836639 933.525024,429.679932 933.307678,439.508026 
	C933.214722,443.712097 934.796692,444.937317 938.875732,444.884247 
	C953.872681,444.689117 968.875671,444.937592 983.872009,444.721130 
	C988.416199,444.655548 990.038513,446.186279 990.052307,450.745941 
	C990.093018,464.203094 990.234558,464.284515 976.711121,464.406433 
	C964.215454,464.519043 951.716736,464.533478 939.222046,464.374786 
	C934.846313,464.319183 933.116333,465.591766 933.254028,470.372650 
	C933.608887,482.695190 933.519958,495.037994 933.277649,507.366211 
	C933.190613,511.794037 934.755920,513.122742 939.072693,513.080261 
	C957.903198,512.894836 976.738770,513.151062 995.567017,512.874939 
	C1000.699646,512.799683 1002.182556,514.550110 1002.105591,519.490417 
	C1001.855286,535.579468 1003.371338,533.036133 988.548523,533.141541 
	C964.717163,533.311096 940.883179,533.114380 917.052185,533.309570 
	C912.286804,533.348633 910.651428,531.807251 910.701965,526.997375 
	C910.903625,507.833466 910.774536,488.666107 910.765991,469.000000 
z"/>
<path fill="#000000" opacity="1.000000" stroke="none" 
	d="
M200.999847,522.246948 
	C167.023895,522.250366 133.547943,522.246704 100.071999,522.264771 
	C94.466118,522.267761 89.090454,521.462585 84.519440,517.904175 
	C77.328629,512.306213 74.752617,503.657013 77.644531,495.119934 
	C80.583984,486.442444 87.834717,481.474457 97.557739,481.485626 
	C121.032036,481.512604 144.506332,481.550903 167.980637,481.570099 
	C208.950485,481.603607 249.920410,481.672577 290.890015,481.584991 
	C295.210114,481.575775 299.021851,482.367035 302.733093,484.585114 
	C308.159821,487.828491 313.855133,490.623871 319.267365,493.889618 
	C322.358490,495.754791 325.014160,495.804565 328.049469,493.876434 
	C332.261963,491.200531 336.859650,489.093079 340.903198,486.198517 
	C346.171570,482.427124 351.717743,480.958496 358.182281,481.399261 
	C365.313446,481.885468 372.497620,481.557190 379.657318,481.670990 
	C390.554901,481.844238 398.430969,489.387970 399.263397,500.357605 
	C400.039246,510.581635 393.370880,519.315491 383.297729,521.394958 
	C380.176453,522.039307 377.050903,522.259338 373.875061,522.258423 
	C316.416656,522.241028 258.958252,522.246582 200.999847,522.246948 
M185.500153,492.217468 
	C161.845169,492.231506 138.190201,492.244934 114.535217,492.259979 
	C108.371742,492.263885 102.202538,492.111298 96.046570,492.329681 
	C90.906937,492.512024 87.394875,496.416870 87.370651,501.427765 
	C87.346230,506.479431 90.734573,510.352905 95.802155,510.832611 
	C98.115082,511.051575 100.460915,510.946716 102.791847,510.948029 
	C146.102524,510.972076 189.413193,511.000153 232.723877,511.006470 
	C281.032135,511.013519 329.340393,511.019379 377.648590,510.972778 
	C384.557068,510.966125 388.718597,507.199768 388.640411,501.411255 
	C388.566437,495.935883 384.321930,492.322968 377.723297,492.265320 
	C370.893860,492.205688 364.059967,492.390472 357.234772,492.211456 
	C353.425659,492.111511 350.143097,492.961090 346.894653,495.044922 
	C340.732117,498.998138 334.286865,502.507751 328.052765,506.353638 
	C325.381042,508.001801 323.100372,508.285858 320.234558,506.566010 
	C313.527527,502.541107 306.541321,498.981873 299.827850,494.966980 
	C296.704681,493.099213 293.595612,492.201233 289.949249,492.208588 
	C255.466324,492.278168 220.983170,492.231384 185.500153,492.217468 
z"/>
<path fill="#000000" opacity="1.000000" stroke="none" 
	d="
M327.429871,353.462830 
	C347.134979,363.858032 363.810577,376.958313 374.184357,396.870819 
	C378.631073,405.406403 381.162354,414.480011 382.152039,423.994354 
	C383.462158,436.589874 374.699493,446.186188 361.609711,446.293640 
	C344.611206,446.433167 327.610748,446.334320 310.611115,446.333282 
	C245.612610,446.329254 180.614075,446.303925 115.615601,446.342407 
	C107.388214,446.347290 100.580322,443.848572 96.081947,436.559937 
	C92.672020,431.034943 93.184647,424.976410 94.178886,419.076385 
	C98.194046,395.249664 112.176460,377.964874 131.104782,364.159180 
	C152.729584,348.386749 177.422531,339.931946 203.517395,335.939789 
	C246.322403,329.391296 287.823853,333.852814 327.429871,353.462830 
M305.859497,355.676544 
	C273.561462,343.952057 240.333618,341.309570 206.548340,346.418213 
	C177.626816,350.791443 150.719940,360.467163 128.284500,380.060425 
	C115.724586,391.029144 107.683037,404.811279 104.594482,421.284821 
	C102.830795,430.691864 106.518036,435.626709 115.404243,435.632904 
	C197.201462,435.690002 278.998718,435.692535 360.795990,435.665955 
	C368.640472,435.663391 372.668091,431.158813 371.523163,423.482605 
	C369.348236,408.900909 363.031189,396.273468 352.903015,385.547394 
	C339.931976,371.810608 324.072845,362.613464 305.859497,355.676544 
z"/>
<path fill="#000000" opacity="1.000000" stroke="none" 
	d="
M256.529510,529.362915 
	C276.918610,529.332520 296.897064,528.804932 316.849243,529.311584 
	C332.330322,529.704712 347.785370,528.822998 363.277588,529.381042 
	C373.932159,529.764893 383.809326,537.428528 382.147339,551.744019 
	C379.760742,572.301086 364.987518,585.147583 344.123352,585.151062 
	C272.984344,585.162903 201.845367,585.158020 130.706375,585.134216 
	C108.623947,585.126831 93.016136,569.207092 93.677429,547.459534 
	C93.999840,536.856384 101.134438,529.912354 111.810219,529.619629 
	C143.599564,528.748108 175.395950,530.101135 207.174088,529.430176 
	C223.496002,529.085449 239.800507,529.962952 256.529510,529.362915 
M231.500412,540.225891 
	C192.184128,540.226685 152.867828,540.217346 113.551552,540.237427 
	C106.215736,540.241150 104.083099,542.519348 104.283478,549.892334 
	C104.652756,563.480164 115.416351,573.881958 129.171295,573.890381 
	C201.139236,573.934448 273.107178,573.965942 345.075134,574.003601 
	C358.916260,574.010864 367.560608,567.216064 370.859131,553.724487 
	C373.219360,544.070740 370.294861,540.242432 360.445007,540.238037 
	C317.796783,540.218994 275.148560,540.224854 231.500412,540.225891 
z"/>
<path fill="#000000" opacity="1.000000" stroke="none" 
	d="
M783.999573,487.673279 
	C779.330566,466.632782 778.629517,446.080872 785.640076,425.772766 
	C797.393372,391.726349 827.894165,377.862518 860.152283,381.206116 
	C869.835876,382.209839 879.063538,384.705109 887.950867,388.680542 
	C891.358154,390.204651 892.445374,392.158356 890.935791,395.684052 
	C888.935181,400.356689 888.101379,405.507385 885.341553,410.228882 
	C877.435486,406.886566 869.894653,403.486389 861.594177,402.131256 
	C832.915222,397.449188 811.137207,412.120667 805.661438,440.769073 
	C802.592285,456.826508 802.991211,472.915436 809.412170,488.355225 
	C818.418701,510.011902 836.979431,517.116577 858.404968,515.252625 
	C868.318298,514.390320 877.556213,511.361816 886.686951,506.682068 
	C890.102234,512.092529 891.294128,517.986633 892.911926,523.655457 
	C893.617676,526.128418 890.912415,526.852356 889.240234,527.719604 
	C874.746765,535.236145 859.203552,537.198975 843.176270,535.862305 
	C827.330566,534.540771 812.959473,529.517700 801.352356,518.059753 
	C792.824646,509.641663 787.668335,499.323547 783.999573,487.673279 
z"/>
<path fill="#000000" opacity="1.000000" stroke="none" 
	d="
M302.453796,268.620850 
	C277.560791,261.073090 252.391312,258.493225 227.021790,260.497711 
	C180.527328,264.171356 139.189163,280.860962 103.867455,311.799072 
	C83.820351,329.358246 67.725243,349.982971 55.362896,373.504913 
	C41.386688,400.097565 33.968979,428.520844 32.131447,458.492493 
	C30.322498,487.997925 34.453972,516.535583 45.245354,544.082336 
	C45.488041,544.701904 45.721371,545.331604 45.875050,545.976562 
	C45.943558,546.264038 45.803326,546.601196 45.713303,547.223755 
	C43.201523,546.814758 43.126919,544.519287 42.428814,542.956665 
	C32.482777,520.693542 26.855728,497.383331 25.593924,473.019775 
	C22.134806,406.229370 46.026337,350.440643 94.496552,305.211639 
	C127.757446,274.174896 167.743378,256.248840 212.864288,251.018906 
	C257.614746,245.831940 300.012360,254.489670 339.577423,276.263885 
	C360.641235,287.856140 379.303284,302.469208 394.924500,320.836243 
	C395.782013,321.844482 396.571930,322.913940 397.332581,323.997528 
	C397.471039,324.194733 397.314301,324.599182 397.195068,326.398102 
	C370.122925,298.915375 339.055328,279.502777 302.453796,268.620850 
z"/>
<path fill="#000000" opacity="1.000000" stroke="none" 
	d="
M354.308167,635.286133 
	C390.854156,610.285522 417.037445,577.322021 433.309326,536.669739 
	C441.060822,517.304138 445.311218,497.043182 446.925110,476.093262 
	C449.470795,443.047852 443.704102,411.499054 432.175964,380.736877 
	C431.786896,379.698669 431.062469,378.635773 432.662598,377.037781 
	C441.118561,391.919983 445.849365,407.897491 449.661133,424.133575 
	C458.624420,462.312256 457.781982,500.485077 444.029694,537.158325 
	C414.541626,615.794250 358.011841,664.496216 275.007904,677.753967 
	C200.903015,689.590271 138.484009,663.443970 87.386208,609.262756 
	C170.218796,679.686462 258.527466,693.729675 354.308167,635.286133 
z"/>
<path fill="#000000" opacity="1.000000" stroke="none" 
	d="
M266.434326,465.429047 
	C256.821411,461.556335 248.488953,463.970215 240.478165,468.974182 
	C230.853882,474.986023 220.505661,477.006409 209.385559,474.235413 
	C204.802689,473.093384 200.748459,470.737640 196.768524,468.319214 
	C186.361252,461.995117 176.076691,461.935577 165.740921,468.484955 
	C151.258682,477.661804 136.669739,478.034698 122.111496,468.678955 
	C111.702530,461.989777 101.258255,461.603790 90.659065,468.146454 
	C87.526306,470.080231 84.816048,469.364868 82.886200,466.448212 
	C80.847702,463.367432 82.514183,461.011230 85.092606,459.287109 
	C96.178345,451.874207 108.030357,451.027008 120.328934,455.652893 
	C123.417603,456.814667 126.330467,458.540527 129.161484,460.272919 
	C138.544144,466.014465 148.238403,466.692200 157.448349,460.687195 
	C173.544571,450.192230 189.143387,450.759613 205.199448,460.678467 
	C214.273666,466.284210 224.061539,466.518616 233.132233,460.706909 
	C249.194382,450.415649 264.848694,450.631744 280.937469,460.620514 
	C289.837494,466.146149 299.203644,466.141052 308.402435,460.733246 
	C318.074463,455.047302 328.107910,451.120575 339.723297,453.607269 
	C345.212646,454.782471 350.144653,457.106812 354.856842,459.906555 
	C365.054321,465.965332 375.191742,466.640961 385.490417,460.296906 
	C388.560577,458.405609 391.368225,458.868896 393.299713,461.855927 
	C395.560150,465.351624 393.633759,468.096069 390.694366,469.792297 
	C378.976990,476.554138 366.811401,477.426239 354.348480,471.867584 
	C352.832611,471.191528 351.341858,470.402832 349.965729,469.478394 
	C338.292084,461.636627 326.741119,461.775970 314.996185,469.496613 
	C309.053040,473.403412 302.345428,475.214325 295.148163,475.366852 
	C287.919922,475.520050 281.367645,473.555603 275.165863,470.022400 
	C272.420471,468.458405 269.595123,467.034637 266.434326,465.429047 
z"/>
<path fill="#000000" opacity="1.000000" stroke="none" 
	d="
M985.794189,368.073425 
	C975.419800,379.685974 977.970276,377.896698 967.887512,369.411072 
	C964.576111,366.624146 961.224426,363.867310 958.109741,360.869659 
	C955.445862,358.305969 953.383606,358.153168 950.554443,360.852173 
	C945.742554,365.442810 940.445129,369.520172 935.523376,374.001709 
	C932.903076,376.387695 930.967712,376.337189 928.322388,373.881073 
	C921.082458,367.159119 920.997437,367.283234 927.887573,360.426422 
	C934.024597,354.319214 940.092957,348.142822 946.247803,342.053772 
	C949.687378,338.650909 958.929993,338.407745 962.206726,341.887543 
	C969.402710,349.529388 976.976990,356.774353 984.581116,363.996094 
	C985.652832,365.013947 986.958374,366.005829 985.794189,368.073425 
z"/>
<path fill="#000000" opacity="1.000000" stroke="none" 
	d="
M757.689575,414.333496 
	C756.596008,413.831573 755.874695,413.367218 755.085083,413.141479 
	C750.286560,411.769684 750.028198,409.538055 752.391357,405.179626 
	C757.313477,396.101624 759.245850,386.107147 758.614258,375.774445 
	C758.332336,371.162781 760.025452,369.445770 764.591736,369.745270 
	C768.901917,370.027954 773.244873,369.828033 777.573303,369.808777 
	C779.967102,369.798157 781.160645,370.749451 781.331970,373.332031 
	C782.402588,389.468536 776.052734,402.830780 766.043335,414.863434 
	C763.213135,418.265686 760.666138,415.355621 757.689575,414.333496 
z"/>
<path fill="#000000" opacity="1.000000" stroke="none" 
	d="
M632.363220,586.087769 
	C632.023132,588.403198 633.059143,590.690063 630.801025,591.940308 
	C627.789490,593.608032 624.702820,591.640137 624.920593,588.016113 
	C625.478516,578.734680 626.181763,569.461487 626.898804,560.190552 
	C627.038086,558.389465 627.209412,556.370850 629.555603,555.930786 
	C632.001343,555.472107 634.290710,555.755554 635.538513,558.289978 
	C637.519470,562.313599 639.393555,566.389587 641.335938,570.432373 
	C642.178955,572.187012 642.566040,574.219971 644.694153,575.830933 
	C647.089355,570.551636 649.414429,565.451111 651.717651,560.340759 
	C652.938782,557.631287 654.328186,555.238953 657.970276,555.937012 
	C661.385986,556.591614 661.123901,559.314453 661.315796,561.766296 
	C661.989197,570.371826 662.668213,578.977234 663.269714,587.587952 
	C663.437866,589.994995 663.428406,592.281738 659.871765,592.345886 
	C656.356506,592.409363 655.806152,590.470825 655.705322,587.611084 
	C655.519531,582.340820 656.243652,576.994263 654.461731,570.323608 
	C652.382996,575.279419 650.870850,579.041199 649.227661,582.744873 
	C648.186096,585.092468 647.697510,588.191162 644.157410,588.046692 
	C641.022461,587.918762 640.491699,585.153442 639.402649,582.935181 
	C637.765137,579.599792 637.034973,575.773743 633.607910,572.021118 
	C633.135925,577.212280 632.753418,581.419067 632.363220,586.087769 
z"/>
<path fill="#000000" opacity="1.000000" stroke="none" 
	d="
M669.596313,570.994263 
	C669.604858,568.164429 669.609558,565.831299 669.618958,563.498108 
	C669.649170,555.987427 669.768921,555.858887 677.507751,555.715027 
	C679.506409,555.677917 681.508667,555.679199 683.505981,555.752625 
	C692.727783,556.091797 698.628723,563.964478 692.912903,572.842651 
	C694.113037,575.075256 696.079590,576.924072 696.553101,579.714355 
	C697.424805,584.851135 695.443848,589.145630 690.675354,591.062195 
	C684.574402,593.514343 678.205017,592.824280 671.928955,592.104431 
	C669.127686,591.783142 669.137939,589.173340 669.182251,586.968567 
	C669.285950,581.808716 669.453186,576.650085 669.596313,570.994263 
M686.799561,577.599731 
	C684.963745,576.800598 683.067505,576.276794 681.042847,576.388000 
	C679.443298,576.475830 677.365173,575.973694 676.796570,578.002075 
	C676.137512,580.353638 675.435852,583.653503 677.486633,584.965210 
	C680.430969,586.848389 684.313171,586.548035 687.281189,584.428406 
	C689.663086,582.727356 689.522095,580.219788 686.799561,577.599731 
M676.617737,568.857666 
	C679.734253,572.314514 682.990417,570.228455 686.061340,568.902344 
	C687.549072,568.260071 688.092285,566.596558 687.135864,565.060486 
	C685.373840,562.230408 682.470459,562.068787 679.596558,562.368958 
	C675.938721,562.750854 676.632507,565.716064 676.617737,568.857666 
z"/>
<path fill="#000000" opacity="1.000000" stroke="none" 
	d="
M886.413330,576.303345 
	C884.565369,578.433289 885.904053,579.933167 886.754333,581.526428 
	C888.452942,584.709351 890.538330,587.722961 891.534485,591.570923 
	C886.911011,593.212769 883.692749,592.490356 881.677246,587.889038 
	C880.618103,585.471069 879.097534,583.248474 877.710449,580.983582 
	C876.827332,579.541382 875.435425,579.064575 873.822876,579.499084 
	C872.169067,579.944885 872.149109,581.399231 872.102478,582.722778 
	C872.038147,584.548706 872.041443,586.379456 872.088928,588.206299 
	C872.160583,590.961426 871.371277,592.553101 868.103882,592.424194 
	C865.072021,592.304626 863.982483,591.022400 864.007141,588.154236 
	C864.085815,579.013245 864.109436,569.871338 864.086060,560.729980 
	C864.078979,557.946045 865.228638,556.336548 868.064514,556.057190 
	C872.204407,555.649231 876.358521,555.242920 880.456726,556.267761 
	C890.639465,558.814148 893.482300,567.921021 886.413330,576.303345 
M874.022827,562.834717 
	C872.324097,563.525940 871.996033,565.042664 872.118408,566.552490 
	C872.300293,568.797546 870.864929,572.142883 874.752075,572.428040 
	C877.696106,572.644043 881.168152,572.439209 882.180969,568.844421 
	C883.164551,565.353210 880.790833,563.679626 877.680725,562.968323 
	C876.724304,562.749634 875.724426,562.720886 874.022827,562.834717 
z"/>
<path fill="#000000" opacity="1.000000" stroke="none" 
	d="
M761.768372,586.363586 
	C762.569702,588.199097 763.777283,589.496155 763.611389,591.659607 
	C759.427551,593.153320 756.164307,592.627930 754.054626,588.057739 
	C752.945984,585.656006 751.371338,583.467163 749.979919,581.198914 
	C749.109680,579.780212 747.833069,579.158997 746.166687,579.450195 
	C744.089966,579.813171 744.278015,581.481445 744.221924,582.949341 
	C744.152100,584.778198 744.132080,586.611389 744.166260,588.441284 
	C744.217651,591.181824 742.923767,592.310852 740.190552,592.265747 
	C737.632690,592.223389 736.612976,591.055481 736.624756,588.593872 
	C736.670044,579.105896 736.703857,569.617615 736.656860,560.129822 
	C736.644836,557.698914 737.713074,556.292603 740.038574,556.038147 
	C745.182861,555.475220 750.348450,555.137634 755.307861,557.122070 
	C761.768921,559.707336 765.278992,567.419189 760.923767,572.594788 
	C756.251892,578.146606 759.005188,581.703247 761.768372,586.363586 
M751.173401,563.196716 
	C748.737244,562.741638 745.576965,560.617249 744.475281,564.437805 
	C743.776062,566.862793 742.696838,570.586243 745.683899,572.145691 
	C748.375610,573.550903 751.814148,572.729797 753.772949,570.084595 
	C755.709961,567.468872 754.704956,565.052307 751.173401,563.196716 
z"/>
<path fill="#000000" opacity="1.000000" stroke="none" 
	d="
M576.312439,569.471252 
	C578.920715,566.475708 577.601013,563.215637 577.720398,560.161438 
	C577.830017,557.354492 578.622986,555.772339 581.749146,555.838623 
	C584.657898,555.900269 585.376038,557.446472 585.361511,560.001587 
	C585.307678,569.479004 585.320129,578.956909 585.356018,588.434509 
	C585.364807,590.744507 584.768677,592.248840 582.056519,592.313354 
	C579.463318,592.375000 577.854980,591.584473 577.826965,588.748657 
	C577.812195,587.252625 577.771790,585.756775 577.767456,584.260742 
	C577.746338,576.983582 577.735779,577.262390 570.730347,576.922852 
	C565.762085,576.682007 563.549927,578.209961 564.249268,583.362732 
	C564.514771,585.319397 564.269287,587.346497 564.244080,589.341370 
	C564.213013,591.798279 562.664185,592.344971 560.578003,592.291992 
	C558.634705,592.242676 556.771545,592.085388 556.764160,589.503479 
	C556.735107,579.361572 556.737976,569.219604 556.742065,559.077637 
	C556.743042,556.710693 558.172302,555.888428 560.308167,555.938354 
	C562.253174,555.983765 564.015076,556.327332 564.226990,558.780273 
	C564.255615,559.111328 564.253296,559.445190 564.283997,559.776001 
	C565.255798,570.250793 565.256165,570.250732 576.312439,569.471252 
z"/>
<path fill="#000000" opacity="1.000000" stroke="none" 
	d="
M767.441895,581.001282 
	C766.216370,576.838013 766.299866,572.947327 766.938110,569.211182 
	C768.844971,558.050171 782.694458,551.587830 792.777283,556.872070 
	C795.069702,558.073486 795.296997,559.542603 794.444153,561.772156 
	C793.552979,564.101990 792.184509,564.205383 790.127808,563.432617 
	C785.481689,561.687134 780.854980,561.322510 777.311523,565.559631 
	C773.511841,570.103027 773.578430,575.351990 775.577515,580.636963 
	C776.569763,583.260010 778.492920,585.034851 781.332886,585.689148 
	C786.197144,586.809631 787.722107,585.653992 787.835327,580.703064 
	C787.869507,579.205811 787.848999,577.705078 787.946167,576.212036 
	C788.095459,573.918274 789.582764,573.088379 791.664429,573.064209 
	C793.633118,573.041382 795.486938,573.464417 795.728516,575.807312 
	C796.189880,580.280457 796.242432,584.772827 795.670288,589.249146 
	C795.506836,590.528076 794.662720,591.236023 793.525635,591.771423 
	C783.645691,596.423157 771.718262,591.669617 767.441895,581.001282 
z"/>
<path fill="#000000" opacity="1.000000" stroke="none" 
	d="
M809.498169,582.032349 
	C811.385010,585.878906 814.438293,586.478210 817.709717,585.550537 
	C821.224182,584.553894 821.680176,581.457336 821.680847,578.306641 
	C821.682129,572.311462 821.724731,566.316040 821.674072,560.321289 
	C821.651672,557.671082 822.168396,555.748047 825.447327,555.772278 
	C828.606506,555.795471 829.356750,557.521057 829.326843,560.262451 
	C829.256042,566.756409 829.454590,573.256165 829.260681,579.745117 
	C829.021179,587.758911 823.837585,592.913452 816.083069,593.220886 
	C807.741028,593.551636 802.856812,589.535889 801.559570,581.384033 
	C800.425781,574.259460 801.149170,567.092773 800.966125,559.947266 
	C800.892334,557.068787 802.225647,555.690491 805.239441,555.834412 
	C808.242798,555.977783 808.545288,557.702087 808.590149,560.199585 
	C808.718262,567.346191 809.097900,574.488220 809.498169,582.032349 
z"/>
<path fill="#000000" opacity="1.000000" stroke="none" 
	d="
M619.902222,583.314026 
	C620.524231,586.250671 622.299561,588.526855 621.809875,591.531311 
	C617.647156,593.155823 614.373230,592.933533 613.225708,587.751587 
	C612.296448,583.554871 608.982361,584.144958 606.080811,584.300415 
	C603.028198,584.463806 599.009705,582.766174 597.841675,587.568787 
	C596.617676,592.601685 593.546021,593.216492 588.735718,591.403076 
	C592.640869,580.014465 595.973938,568.550354 601.434021,557.916870 
	C603.331055,554.222534 608.554260,555.085693 610.356262,559.336121 
	C613.661560,567.132202 616.639038,575.067322 619.902222,583.314026 
M608.684448,576.891663 
	C609.251221,573.581970 608.353149,570.852539 605.533203,568.643433 
	C602.289185,570.841125 602.114807,573.951477 602.021362,577.181580 
	C604.270752,577.896729 606.201355,577.777039 608.684448,576.891663 
z"/>
<path fill="#000000" opacity="1.000000" stroke="none" 
	d="
M917.670654,561.768433 
	C919.088074,558.804749 919.633728,555.721558 923.749329,555.734924 
	C927.794189,555.748108 928.702576,558.613403 929.767212,561.343018 
	C933.620361,571.221802 937.340271,581.152466 941.220581,591.353027 
	C936.516724,593.003418 933.079285,593.145020 931.729553,588.025940 
	C930.254578,582.431763 925.710083,584.681519 922.247559,584.223450 
	C919.116211,583.809326 916.616638,584.570801 915.894165,588.162170 
	C914.903076,593.088989 911.553955,592.718567 907.285950,591.711670 
	C909.529358,581.303284 913.912292,571.841736 917.670654,561.768433 
M920.192932,577.024658 
	C922.566284,578.080750 924.891907,577.963379 927.679932,576.765808 
	C926.802979,573.348938 926.265503,570.021301 923.500488,566.901428 
	C921.592957,570.126587 920.314026,573.075012 920.192932,577.024658 
z"/>
<path fill="#000000" opacity="1.000000" stroke="none" 
	d="
M703.211670,586.330811 
	C700.301758,576.829407 701.997986,567.483276 701.876648,558.227173 
	C701.844299,555.761169 704.234070,555.837585 706.077942,555.884644 
	C708.453430,555.945312 709.147400,557.526855 709.162415,559.585388 
	C709.204895,565.409607 709.201172,571.234314 709.262329,577.058350 
	C709.328796,583.379883 711.086792,585.822754 715.515625,585.872742 
	C720.106079,585.924561 722.633362,582.923889 722.599548,577.018860 
	C722.569153,571.701721 722.221191,566.387024 722.065857,561.069702 
	C721.981873,558.193665 722.328247,555.713623 726.234802,555.776978 
	C729.832458,555.835388 730.185852,558.121887 730.170166,560.815674 
	C730.133301,567.138000 730.402283,573.484253 729.940491,579.776306 
	C729.382385,587.381226 725.995056,591.051270 719.021912,592.810974 
	C713.262939,594.264343 707.260254,591.909485 703.211670,586.330811 
z"/>
<path fill="#000000" opacity="1.000000" stroke="none" 
	d="
M852.889404,592.358154 
	C848.243835,592.347778 844.083252,592.273926 839.925476,592.349609 
	C837.112671,592.400696 835.596069,591.479553 835.629150,588.354980 
	C835.729370,578.872437 835.724121,569.387817 835.642944,559.904907 
	C835.616760,556.846375 837.088745,555.747925 839.912964,555.781128 
	C844.903625,555.839783 849.894897,555.861633 854.885925,555.864807 
	C857.215637,555.866333 858.755798,556.701599 858.825623,559.275940 
	C858.903076,562.130615 857.239319,563.025635 854.695496,563.005554 
	C852.200317,562.985840 849.704651,563.024170 847.209229,563.043762 
	C844.985046,563.061218 843.338074,563.585022 843.304077,566.370667 
	C843.271240,569.067627 844.678284,569.843750 847.018921,569.865601 
	C849.180969,569.885742 851.343445,569.949341 853.503723,570.040771 
	C855.615906,570.130188 856.973328,571.056213 857.003601,573.371948 
	C857.033752,575.673035 855.723328,576.745911 853.613342,576.812134 
	C850.467773,576.910706 847.316833,576.837646 844.295593,576.837646 
	C841.929749,584.550110 842.739746,585.698303 850.157715,585.726135 
	C851.987854,585.733032 853.818604,585.764771 855.648071,585.731934 
	C858.092285,585.688171 859.981018,586.274170 859.948303,589.240967 
	C859.917725,592.018677 858.075073,592.412415 855.871216,592.352600 
	C855.040039,592.330017 854.207520,592.355042 852.889404,592.358154 
z"/>
<path fill="#000000" opacity="1.000000" stroke="none" 
	d="
M903.915161,569.129272 
	C903.774597,575.899109 903.615234,582.200867 903.493713,588.503418 
	C903.450439,590.746094 902.934448,592.328186 900.155640,592.330811 
	C897.532227,592.333313 895.987976,591.460144 895.986206,588.679138 
	C895.980103,579.049194 895.950195,569.419006 896.021423,559.789551 
	C896.039795,557.299438 897.225464,555.765625 900.036072,555.845276 
	C902.684937,555.920410 903.356750,557.392395 903.403931,559.722107 
	C903.464355,562.704163 903.732605,565.681885 903.915161,569.129272 
z"/>
<path fill="#000000" opacity="1.000000" stroke="none" 
	d="
M209.883606,386.004578 
	C211.140457,386.499542 212.191483,386.800781 212.819427,387.488373 
	C214.847122,389.708710 214.816040,392.111053 212.421112,393.955475 
	C210.204437,395.662567 207.677002,395.171326 206.438965,392.803467 
	C204.792892,389.655182 205.599091,386.978027 209.883606,386.004578 
z"/>
<path fill="#000000" opacity="1.000000" stroke="none" 
	d="
M276.217285,368.172241 
	C272.892853,369.648438 271.036316,368.299377 270.045746,365.606262 
	C269.335724,363.675781 270.080994,361.980774 271.867493,360.930389 
	C273.608093,359.906952 275.456726,359.855682 276.877563,361.414276 
	C278.885498,363.616913 278.744080,365.888550 276.217285,368.172241 
z"/>
<path fill="#000000" opacity="1.000000" stroke="none" 
	d="
M318.241089,374.435028 
	C318.499329,377.821503 316.938538,379.456604 314.024475,379.570984 
	C312.029205,379.649261 310.572021,378.442261 310.118134,376.472504 
	C309.609619,374.265533 310.618408,372.571747 312.609741,371.669250 
	C315.247284,370.473755 316.964142,371.788422 318.241089,374.435028 
z"/>
<path fill="#000000" opacity="1.000000" stroke="none" 
	d="
M225.884766,354.095337 
	C229.030807,353.025574 231.253738,353.695892 232.101669,356.699402 
	C232.725510,358.909119 231.723755,360.552765 229.546951,361.466125 
	C227.759369,362.216125 226.204117,361.822784 225.041428,360.427856 
	C223.258621,358.288940 223.448074,356.169708 225.884766,354.095337 
z"/>
<path fill="#000000" opacity="1.000000" stroke="none" 
	d="
M165.339523,375.830811 
	C163.475204,373.174683 163.951721,371.094330 166.146103,369.473846 
	C167.616562,368.387970 169.292297,368.452393 170.776520,369.570740 
	C172.470642,370.847198 172.798599,372.735352 172.076233,374.504639 
	C170.741806,377.772919 168.338715,377.840485 165.339523,375.830811 
z"/>
<path fill="#000000" opacity="1.000000" stroke="none" 
	d="
M139.270294,408.860352 
	C138.573288,403.935852 140.269440,401.721222 143.543610,402.791168 
	C145.202866,403.333405 146.518127,404.387238 146.764236,406.230225 
	C146.981628,407.858307 146.171570,409.150330 144.833893,410.003265 
	C142.841293,411.273712 141.050400,410.776093 139.270294,408.860352 
z"/>
<path fill="#000000" opacity="1.000000" stroke="none" 
	d="
M258.581360,393.756195 
	C255.732132,393.675995 254.003189,392.698059 254.882675,389.855957 
	C255.356766,388.323853 256.841278,388.046234 258.096436,388.923248 
	C259.847687,390.146790 261.984924,391.533905 258.581360,393.756195 
z"/>
</svg>